<?xml version="1.0" encoding="utf-8"?>
<!-- Generator: Adobe Illustrator 24.1.0, SVG Export Plug-In . SVG Version: 6.00 Build 0)  -->
<svg version="1.1" id="Capa_1" xmlns="http://www.w3.org/2000/svg" xmlns:xlink="http://www.w3.org/1999/xlink" x="0px" y="0px"
	 viewBox="0 0 512 512" style="enable-background:new 0 0 512 512;" xml:space="preserve">
<style type="text/css">
	.st0{fill:#FFFFFF;}
</style>
<path class="st0" d="M512,245.4c0-13.8-11.2-25-25-25H25c-13.8,0-25,11.2-25,25c0,38,31,69,69,69h31.3c-0.4,0.5-0.7,1-1.1,1.6
	L68.4,363H15c-8.3,0-15,6.7-15,15s6.7,15,15,15h61.6c5.1,0,9.8-2.5,12.5-6.8l35.3-53.8c7.2-11,19.4-17.6,32.6-17.6h100.3
	c7.1,0,12.9,5.8,12.9,12.9s-5.8,12.9-12.9,12.9h-41.4c-23.6,0-42.9,19.2-42.9,42.9c0,23.6,19.2,42.9,42.9,42.9h43.9
	c12.9,0,25.5-4.6,35.4-12.9l104.6-87.8c5-4.2,12.1-4.7,17.7-1.3c5.2,3.2,6.6,8.1,7,10.7c0.4,2.6,0.4,7.7-3.7,12.2L319.5,460.3
	c-12.3,13.8-30,21.7-48.4,21.7H15c-8.3,0-15,6.7-15,15s6.7,15,15,15h256c27,0,52.8-11.5,70.8-31.6l101.2-113.1
	c8.9-10,12.9-23.3,11-36.5c-0.9-5.9-2.9-11.5-5.8-16.5C483.9,311.5,512,281.7,512,245.4L512,245.4z M443,284.4H69
	c-19.8,0-36.2-14.8-38.7-34h451.4C479.2,269.5,462.8,284.4,443,284.4z M275.8,390.4c-4.5,3.8-10.2,5.9-16.1,5.9h-43.9
	c-7.1,0-12.9-5.8-12.9-12.9s5.8-12.9,12.9-12.9h41.4c23.6,0,42.9-19.2,42.9-42.9c0-4.6-0.7-9.1-2.1-13.3h68.4L275.8,390.4z"/>
<path class="st0" d="M374.8,171.3c0,8.3,6.7,15,15,15h39.2c8.3,0,15-6.7,15-15s-6.7-15-15-15h-39.2
	C381.5,156.3,374.8,163,374.8,171.3z"/>
<path class="st0" d="M363.1,112.9c3.3,0,6.6-1.1,9.4-3.3l30.6-24.5c6.5-5.2,7.5-14.6,2.3-21.1s-14.6-7.5-21.1-2.3l-30.6,24.5
	c-6.5,5.2-7.5,14.6-2.3,21.1C354.4,110.9,358.7,112.9,363.1,112.9z"/>
<path class="st0" d="M292.1,66.6c1.5,0.5,3.1,0.7,4.6,0.7c6.3,0,12.2-4.1,14.3-10.4l12-37.3c2.5-7.9-1.8-16.3-9.7-18.9
	c-7.9-2.5-16.3,1.8-18.9,9.7l-12,37.3C279.9,55.6,284.2,64,292.1,66.6z"/>
<path class="st0" d="M201,56.9c2,6.4,7.9,10.4,14.3,10.4c1.5,0,3.1-0.2,4.6-0.7c7.9-2.5,12.2-11,9.7-18.9l-12-37.3
	c-2.5-7.9-11-12.2-18.9-9.7c-7.9,2.5-12.2,11-9.7,18.9L201,56.9z"/>
<path class="st0" d="M108.9,85.1l30.6,24.5c2.8,2.2,6.1,3.3,9.4,3.3c4.4,0,8.8-1.9,11.7-5.6c5.2-6.5,4.1-15.9-2.3-21.1l-30.6-24.5
	c-6.5-5.2-15.9-4.1-21.1,2.3S102.4,79.9,108.9,85.1z"/>
<path class="st0" d="M83.1,186.3h39.2c8.3,0,15-6.7,15-15s-6.7-15-15-15H83.1c-8.3,0-15,6.7-15,15S74.8,186.3,83.1,186.3z"/>
</svg>