<?xml version="1.0" encoding="utf-8"?>
<!-- Generator: Adobe Illustrator 24.1.0, SVG Export Plug-In . SVG Version: 6.00 Build 0)  -->
<svg version="1.1" id="Capa_1" xmlns="http://www.w3.org/2000/svg" xmlns:xlink="http://www.w3.org/1999/xlink" x="0px" y="0px"
	 viewBox="0 0 1489.7 1698.3" style="enable-background:new 0 0 1489.7 1698.3;" xml:space="preserve">
<style type="text/css">
	.st0{fill:#FFFFFF;}
</style>
<g id="shopping_bag_2">
	<path class="st0" d="M1489.7,1540.2l-50.7-1145.8c-0.9-84.6-70.3-153.2-155.6-153.2h-257.9C1004.5,106.3,886.6,0,744.7,0
		C602.7,0,484.8,106.3,463.9,241.3H206.3c-85.2,0-154.6,68.6-155.5,153.2L0.1,1540.2c0,1-0.1,2-0.1,2.9
		c0,85.5,69.8,155.1,155.6,155.1h1178.6c85.8,0,155.6-69.6,155.6-155.1C1489.7,1542.2,1489.7,1541.2,1489.7,1540.2z M744.7,132.1
		c68.7,0,126.9,46.1,145.6,109.1H599C617.7,178.3,675.9,132.1,744.7,132.1z M1334.1,1566.3H155.6c-12.8,0-22.9-9.6-23.4-22.1
		l50.7-1145c0-1,0.1-2.1,0.1-3.1c0-12.7,10.3-22.8,23.4-22.8H460v241.5c0,36.5,29.5,66.1,66,66.1s66-29.6,66-66.1V373.3h304v241.5
		c0,36.5,29.5,66.1,66,66.1s66-29.6,66-66.1V373.3h255.3c13.2,0,23.5,10.1,23.5,22.8c0,1,0,2,0.1,3l50.7,1145.1
		C1357.1,1556.6,1347,1566.3,1334.1,1566.3z"/>
</g>
<g id="Layer_1">
</g>
</svg>
