<?xml version="1.0" encoding="iso-8859-1"?>
<!-- Generator: Adobe Illustrator 19.0.0, SVG Export Plug-In . SVG Version: 6.00 Build 0)  -->
<svg version="1.1" id="Capa_1" xmlns="http://www.w3.org/2000/svg" xmlns:xlink="http://www.w3.org/1999/xlink" x="0px" y="0px"
	 viewBox="0 0 509.248 509.248" style="enable-background:new 0 0 509.248 509.248;" xml:space="preserve">
<g>
	<g>
		<g>
			<polygon points="509.248,115.424 405.136,11.312 382.512,33.936 464,115.424 324.8,254.624 464,393.824 393.824,464 
				254.624,324.8 115.424,464 45.248,393.824 184.448,254.624 45.248,115.424 115.424,45.248 243.312,173.136 265.936,150.512 
				115.424,0 0,115.424 139.2,254.624 0,393.824 115.424,509.248 254.624,370.048 393.824,509.248 509.248,393.824 370.048,254.624 
							"/>
			<rect x="334.622" y="46.624" transform="matrix(0.7071 0.7071 -0.7071 0.7071 146.9764 -229.5845)" width="32" height="32"/>
			<rect x="286.622" y="94.619" transform="matrix(0.7071 0.7071 -0.7071 0.7071 166.8548 -181.5862)" width="32" height="32"/>
		</g>
	</g>
</g>
<g>
</g>
<g>
</g>
<g>
</g>
<g>
</g>
<g>
</g>
<g>
</g>
<g>
</g>
<g>
</g>
<g>
</g>
<g>
</g>
<g>
</g>
<g>
</g>
<g>
</g>
<g>
</g>
<g>
</g>
</svg>
