<?xml version="1.0" encoding="utf-8"?>
<!-- Generator: Adobe Illustrator 24.1.0, SVG Export Plug-In . SVG Version: 6.00 Build 0)  -->
<svg version="1.1" id="Capa_1" xmlns:serif="http://www.serif.com/"
	 xmlns="http://www.w3.org/2000/svg" xmlns:xlink="http://www.w3.org/1999/xlink" x="0px" y="0px" viewBox="0 0 1920 1080"
	 style="enable-background:new 0 0 1920 1080;" xml:space="preserve">
<style type="text/css">
	.st0{fill-rule:evenodd;clip-rule:evenodd;fill:#FFFFFF;}
</style>
<path class="st0" d="M960,0c298,0,540,242,540,540s-242,540-540,540S420,838,420,540S662,0,960,0z M864.9,827.2
	c239,0,369.6-198,369.6-369.6c0-5.7,0-11.3-0.3-16.7c25.3-18.3,47.4-41.2,64.9-67.3c-23.2,10.2-48.2,17.2-74.6,20.5
	c26.9-16.2,47.4-41.5,57.1-71.9c-25.1,14.8-52.8,25.6-82.4,31.5c-23.7-25.3-57.4-40.9-94.8-40.9c-71.7,0-129.8,58.2-129.8,129.8
	c0,10.2,1.1,20.2,3.5,29.6c-108-5.4-203.7-57.1-267.8-135.8c-11,19.1-17.5,41.5-17.5,65.2c0,45,22.9,84.9,57.9,108
	c-21.3-0.5-41.2-6.5-58.7-16.2v1.6c0,63,44.7,115.3,104.3,127.4c-10.8,3-22.4,4.6-34.2,4.6c-8.4,0-16.4-0.8-24.5-2.4
	c16.4,51.7,64.4,89.2,121.2,90.2c-44.5,34.8-100.5,55.5-161.4,55.5c-10.5,0-20.7-0.5-31-1.9C723.2,805.7,791.6,827.2,864.9,827.2
	L864.9,827.2z"/>
</svg>
