<?xml version="1.0" encoding="utf-8"?>
<!-- Generator: Adobe Illustrator 24.1.0, SVG Export Plug-In . SVG Version: 6.00 Build 0)  -->
<svg version="1.1" id="Capa_1" xmlns:serif="http://www.serif.com/"
	 xmlns="http://www.w3.org/2000/svg" xmlns:xlink="http://www.w3.org/1999/xlink" x="0px" y="0px" viewBox="0 0 1920 1080"
	 style="enable-background:new 0 0 1920 1080;" xml:space="preserve">
<style type="text/css">
	.st0{fill-rule:evenodd;clip-rule:evenodd;fill:#FFFFFF;}
</style>
<path class="st0" d="M960,0c298,0,540,242,540,540s-242,540-540,540S420,838,420,540S662,0,960,0z M1216.3,284.4
	c-64.6-64.7-150.6-100.3-242.2-100.4c-188.7,0-342.3,153.5-342.4,342.3c0,60.3,15.7,119.2,45.7,171.1l-48.6,177.4l181.5-47.6
	c50,27.3,106.3,41.6,163.6,41.7h0.1c188.7,0,342.3-153.6,342.4-342.3C1316.6,435.1,1281,349.1,1216.3,284.4L1216.3,284.4z
	 M974.1,811.1H974c-51.1,0-101.2-13.7-144.8-39.7l-10.4-6.2l-107.7,28.2l28.7-105l-6.8-10.8c-28.5-45.3-43.5-97.6-43.5-151.4
	c0.1-156.9,127.7-284.5,284.7-284.5c76,0,147.5,29.7,201.2,83.4c53.7,53.8,83.3,125.3,83.3,201.3
	C1258.7,683.4,1131,811.1,974.1,811.1L974.1,811.1z M1130.2,598c-8.6-4.3-50.6-25-58.5-27.8c-7.8-2.9-13.5-4.3-19.2,4.3
	c-5.7,8.6-22.1,27.8-27.1,33.5c-5,5.7-10,6.4-18.5,2.1c-8.6-4.3-36.1-13.3-68.8-42.4c-25.4-22.7-42.6-50.7-47.6-59.2
	c-5-8.6-0.5-13.2,3.8-17.5c3.8-3.8,8.6-10,12.8-15s5.7-8.6,8.6-14.3c2.9-5.7,1.4-10.7-0.7-15c-2.1-4.3-19.2-46.4-26.4-63.5
	c-6.9-16.7-14-14.4-19.2-14.7c-5-0.2-10.7-0.3-16.4-0.3s-15,2.1-22.8,10.7c-7.8,8.6-29.9,29.3-29.9,71.3c0,42.1,30.7,82.8,34.9,88.5
	c4.3,5.7,60.3,92.1,146.1,129.1c20.4,8.8,36.3,14.1,48.8,18c20.5,6.5,39.1,5.6,53.9,3.4c16.4-2.5,50.6-20.7,57.7-40.7
	c7.1-20,7.1-37.1,5-40.7C1144.5,604.4,1138.8,602.3,1130.2,598L1130.2,598z"/>
</svg>
