<?xml version="1.0" encoding="utf-8"?>
<!-- Generator: Adobe Illustrator 24.1.0, SVG Export Plug-In . SVG Version: 6.00 Build 0)  -->
<svg version="1.1" id="Capa_1" xmlns:serif="http://www.serif.com/"
	 xmlns="http://www.w3.org/2000/svg" xmlns:xlink="http://www.w3.org/1999/xlink" x="0px" y="0px" viewBox="0 0 1920 1080"
	 style="enable-background:new 0 0 1920 1080;" xml:space="preserve">
<style type="text/css">
	.st0{fill-rule:evenodd;clip-rule:evenodd;fill:#FFFFFF;}
</style>
<path class="st0" d="M960,0c298,0,540,242,540,540s-242,540-540,540S420,838,420,540S662,0,960,0z M960,202.5
	c-91.7,0-103.2,0.4-139.2,2c-35.9,1.6-60.5,7.3-81.9,15.7c-22.2,8.6-41,20.2-59.8,38.9c-18.8,18.8-30.3,37.6-38.9,59.8
	c-8.3,21.5-14,46-15.7,81.9c-1.6,36-2,47.5-2,139.2s0.4,103.2,2,139.2c1.6,35.9,7.3,60.5,15.7,81.9c8.6,22.2,20.2,41,38.9,59.8
	c18.8,18.8,37.6,30.3,59.8,38.9c21.5,8.3,46,14,81.9,15.7c36,1.6,47.5,2,139.2,2s103.2-0.4,139.2-2c35.9-1.6,60.5-7.3,81.9-15.7
	c22.2-8.6,41-20.2,59.8-38.9c18.8-18.8,30.3-37.6,38.9-59.8c8.3-21.5,14-46,15.7-81.9c1.6-36,2-47.5,2-139.2s-0.4-103.2-2-139.2
	c-1.6-35.9-7.3-60.5-15.7-81.9c-8.6-22.2-20.2-41-38.9-59.8c-18.8-18.8-37.6-30.3-59.8-38.9c-21.5-8.3-46-14-81.9-15.7
	C1063.2,202.9,1051.7,202.5,960,202.5z M960,263.3c90.1,0,100.8,0.3,136.4,2c32.9,1.5,50.8,7,62.7,11.6c15.8,6.1,27,13.4,38.8,25.2
	c11.8,11.8,19.1,23.1,25.2,38.8c4.6,11.9,10.1,29.8,11.6,62.7c1.6,35.6,2,46.3,2,136.4s-0.3,100.8-2,136.4
	c-1.5,32.9-7,50.8-11.6,62.7c-6.1,15.8-13.4,27-25.2,38.8c-11.8,11.8-23.1,19.1-38.8,25.2c-11.9,4.6-29.8,10.1-62.7,11.6
	c-35.6,1.6-46.3,2-136.4,2s-100.8-0.3-136.4-2c-32.9-1.5-50.8-7-62.7-11.6c-15.8-6.1-27-13.4-38.8-25.2
	C710.3,766,703,754.8,696.9,739c-4.6-11.9-10.1-29.8-11.6-62.7c-1.6-35.6-2-46.3-2-136.4s0.3-100.8,2-136.4
	c1.5-32.9,7-50.8,11.6-62.7c6.1-15.8,13.4-27,25.2-38.8c11.8-11.8,23.1-19.1,38.8-25.2c11.9-4.6,29.8-10.1,62.7-11.6
	C859.2,263.7,869.9,263.3,960,263.3L960,263.3z M960,366.7c-95.7,0-173.3,77.6-173.3,173.3S864.3,713.3,960,713.3
	s173.3-77.6,173.3-173.3S1055.7,366.7,960,366.7L960,366.7z M960,652.5c-62.1,0-112.5-50.4-112.5-112.5S897.9,427.5,960,427.5
	s112.5,50.4,112.5,112.5S1022.1,652.5,960,652.5z M1180.7,359.8c0,22.4-18.1,40.5-40.5,40.5c-22.4,0-40.5-18.1-40.5-40.5
	s18.1-40.5,40.5-40.5C1162.5,319.3,1180.7,337.5,1180.7,359.8z"/>
</svg>
