<?xml version="1.0" encoding="utf-8"?>
<!-- Generator: Adobe Illustrator 24.1.0, SVG Export Plug-In . SVG Version: 6.00 Build 0)  -->
<svg version="1.1" id="Capa_1" xmlns="http://www.w3.org/2000/svg" xmlns:xlink="http://www.w3.org/1999/xlink" x="0px" y="0px"
	 viewBox="0 0 299.8 299.8" style="enable-background:new 0 0 299.8 299.8;" xml:space="preserve">
<style type="text/css">
	.st0{fill:#FFFFFF;}
</style>
<g>
	<g>
		<path class="st0" d="M273.8,175.6c-10.5-8.4-24-17.2-35.3-20.9c6-9.4,9.6-20.5,9.6-32.4c0-33.1-26.9-60-60-60
			c-32.2,0-58.4,25.4-59.8,57.2c-3.5-4.3-8.3-8.2-15.6-8.2c-11.2,0-16.5,8.9-20.1,14.8c-2.9,4.9-4.4,6.9-6.1,6.9
			c-1.6,0-3.1-2-6.1-6.9c-3.6-5.9-8.9-14.8-20.1-14.8c-11.1,0-16.5,8.9-20,14.8c-2.9,4.9-4.4,6.9-6,6.9c-1.6,0-3.1-2-6-6.9
			c-3.5-5.9-8.9-14.8-20-14.8c-4.5,0-8.2,3.7-8.2,8.2s3.7,8.2,8.2,8.2c1.6,0,3.1,2,6,6.9c3.5,5.9,8.9,14.8,20,14.8
			c11.1,0,16.5-8.9,20-14.8c2.9-4.9,4.4-6.9,6-6.9c1.6,0,3.1,2,6.1,6.9c3.5,5.9,8.9,14.8,20.1,14.8s16.5-8.9,20.1-14.8
			c2.9-4.9,4.4-6.9,6.1-6.9s3.1,2,6.1,6.9c3,5.1,7.5,12.3,15.7,14.3c9.8,19.8,30.2,33.4,53.7,33.4c10.4,0,20.1-2.6,28.6-7.3
			c4.3,14.8,17.5,31.9,21.2,36.5c12.9,16,28.8,26,41.6,26c5.8,0,10.8-2,14.6-5.7c4.1-4.1,6-9.6,5.7-16
			C299,203.1,289.3,188,273.8,175.6z M282.5,220.2c-0.3,0.3-1,1-3.1,1c-6.2,0-17.9-6.2-28.8-19.9c-11.2-13.9-16.9-25.6-18.6-31.5
			c6.3,1.8,18,7.7,31.5,18.5c13.2,10.6,19.5,21.9,19.9,28.3C283.5,219.1,282.7,219.9,282.5,220.2z M144.4,122.3
			c0-24.1,19.6-43.7,43.7-43.7s43.7,19.6,43.7,43.7s-19.6,43.7-43.7,43.7S144.4,146.4,144.4,122.3z"/>
		<path class="st0" d="M191.5,107.3c6.6,0,11.9,5.3,11.9,11.9c0,4.5,3.6,8.2,8.2,8.2s8.2-3.7,8.2-8.2c0-15.6-12.7-28.2-28.2-28.2
			c-4.5,0-8.2,3.7-8.2,8.2S187,107.3,191.5,107.3z"/>
	</g>
</g>
</svg>
